# Blender v2.93.4 OBJ File: 'ShortSword.blend'
# www.blender.org
mtllib ShortSword.mtl
o Cube_Cube.001
v -1.192218 7.098438 0.000000
v -1.192218 22.042942 0.000000
v 1.192218 7.098438 0.000000
v 1.192218 22.042942 0.000000
v 0.000000 24.031197 0.000000
v -0.615398 7.098438 0.464392
v 0.615398 7.098438 0.464392
v 0.615398 22.042942 -0.464392
v -0.615398 22.042942 -0.464392
v 0.615398 7.098438 -0.464392
v -0.615398 7.098438 -0.464392
v -0.615398 22.042942 0.464392
v 0.615398 22.042942 0.464392
v 0.000000 22.042942 -0.422093
v 0.000000 22.042942 0.417908
v 0.000000 7.098438 -0.422093
v 0.000000 7.098438 0.417908
v 0.166889 22.042942 -0.464392
v -0.166889 22.042942 -0.464392
v -0.166889 7.098438 -0.464392
v 0.166889 7.098438 -0.464392
v -0.166889 22.042942 0.464392
v 0.166889 22.042942 0.464392
v 0.166889 7.098438 0.464392
v -0.166889 7.098438 0.464392
v 0.020005 22.740410 0.276880
v 0.002576 22.643585 -0.295233
v -0.000000 7.149915 -0.900951
v 0.000000 6.942792 -1.036578
v 0.655988 7.149915 -0.832370
v 0.754739 6.942792 -0.957673
v 0.754739 6.366726 -0.957673
v 0.466454 5.900679 -0.591875
v 1.212108 7.149915 -0.637069
v 1.394576 6.942792 -0.732971
v 1.394576 6.366726 -0.732971
v 0.861895 5.900679 -0.453001
v 1.583696 7.149915 -0.344779
v 1.822101 6.942792 -0.396681
v 1.822101 6.366726 -0.396681
v 1.126120 5.900679 -0.245162
v 1.714180 7.149915 0.000000
v 1.972228 6.942792 0.000000
v 1.972228 6.366726 0.000000
v 1.218904 5.900679 0.000000
v 1.583696 7.149915 0.344779
v 1.822101 6.942792 0.396682
v 1.822101 6.366726 0.396682
v 1.126120 5.900679 0.245163
v 1.212108 7.149915 0.637069
v 1.394576 6.942792 0.732972
v 1.394576 6.366726 0.732972
v 0.861895 5.900679 0.453001
v 0.655988 7.149915 0.832371
v 0.754739 6.942792 0.957674
v 0.754739 6.366726 0.957674
v 0.466454 5.900679 0.591875
v -0.000001 7.149915 0.900951
v -0.000000 6.942792 1.036578
v -0.000000 6.366726 1.036578
v -0.000000 5.900679 0.640641
v -0.655989 7.149915 0.832370
v -0.754740 6.942792 0.957673
v -0.754740 6.366726 0.957673
v -0.466455 5.900679 0.591875
v 0.000000 5.722665 0.000000
v -1.212109 7.149915 0.637069
v -1.394576 6.942792 0.732971
v -1.394576 6.366726 0.732971
v -0.861895 5.900679 0.453001
v -1.583696 7.149915 0.344779
v -1.822101 6.942792 0.396681
v -1.822101 6.366726 0.396681
v -1.126120 5.900679 0.245162
v -1.714180 7.149915 -0.000000
v -1.972228 6.942792 -0.000000
v -1.972228 6.366726 -0.000000
v -1.218904 5.900679 -0.000000
v -1.583695 7.149915 -0.344779
v -1.822100 6.942792 -0.396682
v -1.822100 6.366726 -0.396682
v -1.126120 5.900679 -0.245163
v -1.212107 7.149915 -0.637069
v -1.394575 6.942792 -0.732972
v -1.394575 6.366726 -0.732972
v -0.861895 5.900679 -0.453001
v -0.655987 7.149915 -0.832370
v -0.754738 6.942792 -0.957673
v -0.754738 6.366726 -0.957673
v -0.466454 5.900679 -0.591875
v 0.000001 6.366726 -1.036578
v 0.000001 5.900679 -0.640640
v 0.000000 1.586359 -0.712922
v 0.000000 5.945224 -0.712922
v 0.394440 1.586359 -0.617408
v 0.394440 5.945224 -0.617408
v 0.683190 1.586359 -0.356461
v 0.683190 5.945224 -0.356461
v 0.788880 1.586359 0.000000
v 0.788880 5.945224 0.000000
v 0.683190 1.586359 0.356461
v 0.683190 5.945224 0.356461
v 0.394440 1.586359 0.617408
v 0.394440 5.945224 0.617408
v -0.000000 1.586359 0.712922
v -0.000000 5.945224 0.712922
v -0.394440 1.586359 0.617408
v -0.394440 5.945224 0.617408
v -0.683190 1.586359 0.356461
v -0.683190 5.945224 0.356461
v -0.788880 1.586359 -0.000000
v -0.788880 5.945224 -0.000000
v -0.683190 1.586359 -0.356461
v -0.683190 5.945224 -0.356461
v -0.394440 1.586359 -0.617408
v -0.394440 5.945224 -0.617408
v 0.467833 1.649704 -0.522885
v 0.756970 1.149705 -0.846046
v 0.756970 0.531671 -0.846046
v 0.467833 0.031671 -0.522885
v 0.787133 1.649704 -0.258203
v 1.273608 1.149705 -0.417782
v 1.273607 0.531671 -0.417782
v 0.787133 0.031671 -0.258203
v 0.856523 1.649704 0.088457
v 1.385884 1.149705 0.143126
v 1.385884 0.531671 0.143126
v 0.856523 0.031671 0.088457
v 0.653974 1.649704 0.407032
v 1.058151 1.149705 0.658592
v 1.058151 0.531671 0.658592
v 0.653974 0.031671 0.407032
v 0.243792 1.649704 0.596378
v 0.394464 1.149705 0.964960
v 0.394464 0.531671 0.964960
v 0.243792 0.031671 0.596378
v -0.000000 1.840687 0.000000
v -0.243792 1.649704 0.596378
v -0.394463 1.149705 0.964960
v -0.394463 0.531671 0.964960
v -0.243792 0.031671 0.596378
v 0.000000 -0.159312 0.000000
v -0.653973 1.649704 0.407032
v -1.058151 1.149705 0.658592
v -1.058151 0.531671 0.658592
v -0.653973 0.031671 0.407032
v -0.856523 1.649704 0.088457
v -1.385883 1.149705 0.143126
v -1.385883 0.531671 0.143126
v -0.856523 0.031671 0.088457
v -0.787133 1.649704 -0.258203
v -1.273607 1.149705 -0.417781
v -1.273607 0.531671 -0.417781
v -0.787133 0.031671 -0.258203
v -0.467833 1.649704 -0.522885
v -0.756970 1.149705 -0.846046
v -0.756970 0.531671 -0.846046
v -0.467833 0.031671 -0.522885
v -0.000000 1.649704 -0.621555
v -0.000001 1.149705 -1.005697
v -0.000001 0.531671 -1.005697
v -0.000000 0.031671 -0.621555
vt 0.625000 0.357502
vt 0.375000 0.357502
vt 0.375000 0.310478
vt 0.625000 0.310478
vt 0.375000 0.250000
vt 0.625000 0.250000
vt 0.625000 0.439522
vt 0.000000 0.000000
vt 0.625000 0.500000
vt 0.314522 0.500000
vt 0.375000 0.750000
vt 0.314522 0.750000
vt 0.125000 0.500000
vt 0.185478 0.500000
vt 0.185478 0.750000
vt 0.375000 0.439522
vt 0.375000 0.500000
vt 0.375000 0.939522
vt 0.625000 0.939522
vt 0.625000 1.000000
vt 0.375000 1.000000
vt 0.625000 0.810478
vt 0.625000 0.750000
vt 0.625000 0.857502
vt 0.375000 0.857502
vt 0.375000 0.810478
vt 0.232502 0.500000
vt 0.232502 0.750000
vt 0.625000 0.375000
vt 0.375000 0.375000
vt 0.267498 0.750000
vt 0.267498 0.500000
vt 0.375000 0.892498
vt 0.625000 0.892498
vt 0.625000 0.875000
vt 0.000000 0.000000
vt 0.000000 0.000000
vt 0.250000 0.750000
vt 0.250000 0.500000
vt 0.375000 0.875000
vt 0.625000 0.392498
vt 0.375000 0.392498
vt 0.718750 0.000000
vt 0.750000 0.200000
vt 0.687500 0.200000
vt 0.750000 0.400000
vt 0.750000 0.600000
vt 0.687500 0.600000
vt 0.687500 0.400000
vt 0.750000 0.800000
vt 0.687500 0.800000
vt 0.625000 0.400000
vt 0.625000 0.200000
vt 0.625000 0.800000
vt 0.625000 0.600000
vt 0.656250 0.000000
vt 0.562500 0.400000
vt 0.562500 0.200000
vt 0.562500 0.800000
vt 0.562500 0.600000
vt 0.593750 0.000000
vt 0.500000 0.400000
vt 0.500000 0.200000
vt 0.500000 0.800000
vt 0.500000 0.600000
vt 0.531250 0.000000
vt 0.437500 0.400000
vt 0.437500 0.200000
vt 0.437500 0.800000
vt 0.437500 0.600000
vt 0.468750 0.000000
vt 0.375000 0.400000
vt 0.375000 0.200000
vt 0.375000 0.800000
vt 0.375000 0.600000
vt 0.406250 0.000000
vt 0.312500 0.400000
vt 0.312500 0.200000
vt 0.312500 0.800000
vt 0.312500 0.600000
vt 0.343750 0.000000
vt 0.250000 0.400000
vt 0.250000 0.200000
vt 0.250000 0.800000
vt 0.250000 0.600000
vt 0.281250 0.000000
vt 0.187500 0.400000
vt 0.187500 0.200000
vt 0.187500 0.800000
vt 0.187500 0.600000
vt 0.218750 0.000000
vt 0.125000 0.400000
vt 0.125000 0.200000
vt 0.125000 0.800000
vt 0.125000 0.600000
vt 0.156250 0.000000
vt 0.062500 0.400000
vt 0.062500 0.200000
vt 0.062500 0.800000
vt 0.062500 0.600000
vt 0.093750 0.000000
vt 0.000000 0.400000
vt 0.000000 0.200000
vt 0.000000 0.800000
vt 0.000000 0.600000
vt 0.031250 0.000000
vt 1.000000 0.200000
vt 1.000000 0.400000
vt 0.937500 0.400000
vt 0.937500 0.200000
vt 1.000000 0.600000
vt 1.000000 0.800000
vt 0.937500 0.800000
vt 0.937500 0.600000
vt 0.968750 0.000000
vt 0.875000 0.400000
vt 0.875000 0.200000
vt 0.875000 0.800000
vt 0.875000 0.600000
vt 0.906250 0.000000
vt 0.812500 0.400000
vt 0.812500 0.200000
vt 0.812500 0.800000
vt 0.812500 0.600000
vt 0.843750 0.000000
vt 0.781250 0.000000
vt 0.727273 0.400000
vt 0.727273 0.600000
vt 0.636364 0.600000
vt 0.636364 0.400000
vt 0.727273 0.800000
vt 0.681818 1.000000
vt 0.636364 0.800000
vt 0.727273 0.200000
vt 0.636364 0.200000
vt 0.681818 0.000000
vt 0.590909 0.000000
vt 0.545455 0.200000
vt 0.545455 0.600000
vt 0.545455 0.400000
vt 0.590909 1.000000
vt 0.545455 0.800000
vt 0.500000 0.000000
vt 0.454545 0.200000
vt 0.454545 0.600000
vt 0.454545 0.400000
vt 0.500000 1.000000
vt 0.454545 0.800000
vt 0.409091 0.000000
vt 0.363636 0.200000
vt 0.363636 0.600000
vt 0.363636 0.400000
vt 0.409091 1.000000
vt 0.363636 0.800000
vt 0.318182 0.000000
vt 0.272727 0.200000
vt 0.272727 0.600000
vt 0.272727 0.400000
vt 0.318182 1.000000
vt 0.272727 0.800000
vt 0.227273 0.000000
vt 0.181818 0.200000
vt 0.181818 0.600000
vt 0.181818 0.400000
vt 0.227273 1.000000
vt 0.181818 0.800000
vt 0.136364 0.000000
vt 0.090909 0.200000
vt 0.090909 0.600000
vt 0.090909 0.400000
vt 0.136364 1.000000
vt 0.090909 0.800000
vt 0.045455 0.000000
vt 0.000000 0.200000
vt 0.000000 0.600000
vt 0.000000 0.400000
vt 0.045455 1.000000
vt 0.000000 0.800000
vt 0.954545 0.000000
vt 1.000000 0.200000
vt 0.909091 0.200000
vt 1.000000 0.400000
vt 1.000000 0.600000
vt 0.909091 0.600000
vt 0.909091 0.400000
vt 1.000000 0.800000
vt 0.954545 1.000000
vt 0.909091 0.800000
vt 0.863636 0.000000
vt 0.818182 0.200000
vt 0.818182 0.600000
vt 0.818182 0.400000
vt 0.863636 1.000000
vt 0.818182 0.800000
vt 0.772727 0.000000
vt 0.772727 1.000000
vt 1.000000 0.500000
vt 1.000000 1.000000
vt 0.916667 1.000000
vt 0.916667 0.500000
vt 0.833333 1.000000
vt 0.833333 0.500000
vt 0.750000 1.000000
vt 0.750000 0.500000
vt 0.666667 1.000000
vt 0.666667 0.500000
vt 0.583333 1.000000
vt 0.583333 0.500000
vt 0.500000 1.000000
vt 0.500000 0.500000
vt 0.416667 1.000000
vt 0.416667 0.500000
vt 0.333333 1.000000
vt 0.333333 0.500000
vt 0.250000 1.000000
vt 0.250000 0.500000
vt 0.166667 1.000000
vt 0.166667 0.500000
vt 0.370000 0.457846
vt 0.250000 0.490000
vt 0.130000 0.457846
vt 0.042154 0.370000
vt 0.010000 0.250000
vt 0.042154 0.130000
vt 0.130000 0.042154
vt 0.250000 0.010000
vt 0.370000 0.042154
vt 0.457846 0.130000
vt 0.490000 0.250000
vt 0.457846 0.370000
vt 0.083333 1.000000
vt 0.083333 0.500000
vt 0.000000 1.000000
vt 0.000000 0.500000
vt 0.750000 0.490000
vt 0.870000 0.457846
vt 0.957846 0.370000
vt 0.990000 0.250000
vt 0.957846 0.130000
vt 0.870000 0.042154
vt 0.750000 0.010000
vt 0.630000 0.042154
vt 0.542154 0.130000
vt 0.510000 0.250000
vt 0.542154 0.370000
vt 0.630000 0.457846
vn 0.0000 0.0000 -1.0000
vn -0.6271 0.0000 -0.7789
vn 0.5870 0.3520 -0.7291
vn 0.0000 -1.0000 0.0000
vn 0.6271 0.0000 -0.7789
vn -0.6271 0.0000 0.7789
vn 0.5870 0.3520 0.7291
vn -0.5870 0.3520 -0.7291
vn -0.5870 0.3520 0.7291
vn 0.0000 0.0000 1.0000
vn 0.2457 0.0000 -0.9693
vn 0.6271 0.0000 0.7789
vn -0.2630 0.1985 0.9442
vn 0.2407 0.1996 -0.9498
vn 0.2683 0.0000 0.9633
vn -0.2457 0.0000 -0.9693
vn -0.2683 0.0000 0.9633
vn 0.2637 0.1839 0.9469
vn 0.0000 0.2240 0.9746
vn -0.2406 0.2016 -0.9495
vn 0.0000 0.2235 -0.9747
vn 0.0280 -0.9631 -0.2676
vn 0.1040 -0.0000 -0.9946
vn 0.0794 -0.6454 -0.7597
vn 0.0871 0.5457 -0.8334
vn 0.2408 -0.6870 -0.6856
vn 0.2678 0.5890 -0.7625
vn 0.0803 -0.9702 -0.2286
vn 0.3313 -0.0000 -0.9435
vn 0.3999 -0.7626 -0.5085
vn 0.4576 0.6725 -0.5817
vn 0.1214 -0.9805 -0.1543
vn 0.6183 -0.0000 -0.7860
vn 0.5160 -0.8340 -0.1953
vn 0.6091 0.7589 -0.2305
vn 0.1443 -0.9880 -0.0546
vn 0.9353 -0.0000 -0.3540
vn 0.5160 -0.8340 0.1953
vn 0.6091 0.7589 0.2305
vn 0.1443 -0.9880 0.0546
vn 0.9353 0.0000 0.3540
vn 0.3999 -0.7626 0.5085
vn 0.4576 0.6725 0.5817
vn 0.1214 -0.9805 0.1543
vn 0.6183 0.0000 0.7860
vn 0.2408 -0.6870 0.6856
vn 0.2678 0.5890 0.7625
vn 0.0803 -0.9702 0.2286
vn 0.3313 0.0000 0.9435
vn 0.0794 -0.6454 0.7597
vn 0.0871 0.5457 0.8334
vn 0.0280 -0.9631 0.2676
vn 0.1040 0.0000 0.9946
vn -0.0794 -0.6454 0.7597
vn -0.0871 0.5457 0.8334
vn -0.0280 -0.9631 0.2676
vn -0.1040 0.0000 0.9946
vn -0.2408 -0.6870 0.6856
vn -0.2678 0.5890 0.7625
vn -0.0803 -0.9702 0.2286
vn -0.3313 0.0000 0.9435
vn -0.3999 -0.7626 0.5085
vn -0.4576 0.6725 0.5817
vn -0.1214 -0.9805 0.1543
vn -0.6183 0.0000 0.7860
vn -0.5160 -0.8340 0.1953
vn -0.6091 0.7589 0.2305
vn -0.1443 -0.9880 0.0546
vn -0.9353 0.0000 0.3540
vn -0.5160 -0.8340 -0.1953
vn -0.6091 0.7589 -0.2305
vn -0.1443 -0.9880 -0.0546
vn -0.9353 0.0000 -0.3540
vn -0.3999 -0.7626 -0.5085
vn -0.4576 0.6725 -0.5817
vn -0.1214 -0.9805 -0.1543
vn -0.6183 0.0000 -0.7860
vn -0.2408 -0.6870 -0.6856
vn -0.2678 0.5890 -0.7625
vn -0.0803 -0.9702 -0.2286
vn -0.3313 0.0000 -0.9435
vn -0.0794 -0.6454 -0.7597
vn -0.0871 0.5457 -0.8334
vn -0.0280 -0.9631 -0.2676
vn -0.1040 -0.0000 -0.9946
vn 0.0000 1.0000 0.0000
vn 0.2064 -0.0000 -0.9785
vn 0.0618 0.9541 -0.2932
vn 0.1650 -0.6009 -0.7821
vn 0.1650 0.6009 -0.7821
vn 0.0618 -0.9541 -0.2932
vn 0.1677 -0.9648 -0.2023
vn 0.6382 -0.0000 -0.7699
vn 0.1677 0.9648 -0.2023
vn 0.4823 -0.6549 -0.5818
vn 0.4823 0.6549 -0.5818
vn 0.2218 -0.9741 -0.0444
vn 0.9805 0.0000 -0.1963
vn 0.2218 0.9741 -0.0444
vn 0.6876 -0.7129 -0.1376
vn 0.6876 0.7129 -0.1376
vn 0.2031 -0.9706 0.1291
vn 0.8439 0.0000 0.5365
vn 0.2031 0.9706 0.1291
vn 0.6112 -0.6895 0.3886
vn 0.6112 0.6895 0.3886
vn 0.1192 -0.9587 0.2583
vn 0.4191 -0.0000 0.9079
vn 0.1192 0.9587 0.2583
vn 0.3280 -0.6226 0.7105
vn 0.3280 0.6226 0.7105
vn 0.0000 -0.9524 0.3050
vn 0.0000 0.9524 0.3050
vn 0.0000 -0.5934 0.8049
vn 0.0000 0.5934 0.8049
vn -0.1192 -0.9587 0.2583
vn -0.4191 0.0000 0.9079
vn -0.1192 0.9587 0.2583
vn -0.3280 -0.6226 0.7105
vn -0.3280 0.6226 0.7105
vn -0.2031 -0.9706 0.1291
vn -0.8439 0.0000 0.5365
vn -0.2031 0.9706 0.1291
vn -0.6112 -0.6895 0.3886
vn -0.6112 0.6895 0.3886
vn -0.2218 -0.9741 -0.0444
vn -0.9805 0.0000 -0.1963
vn -0.2218 0.9741 -0.0444
vn -0.6876 -0.7129 -0.1376
vn -0.6876 0.7129 -0.1376
vn -0.1677 -0.9648 -0.2023
vn -0.6382 -0.0000 -0.7699
vn -0.1677 0.9648 -0.2023
vn -0.4823 -0.6549 -0.5818
vn -0.4823 0.6549 -0.5818
vn -0.0618 -0.9541 -0.2932
vn -0.2064 -0.0000 -0.9785
vn -0.0618 0.9541 -0.2932
vn -0.1650 -0.6009 -0.7821
vn -0.1650 0.6009 -0.7821
vn 0.0000 -0.6578 -0.7532
vn 0.0000 0.6578 -0.7532
vn 0.3528 0.6557 -0.6675
vn 0.3528 -0.6557 -0.6675
vn 0.6423 0.6510 -0.4045
vn 0.6423 -0.6510 -0.4045
vn 0.7613 0.6484 0.0000
vn 0.7613 -0.6484 0.0000
vn 0.6423 0.6510 0.4045
vn 0.6423 -0.6510 0.4045
vn 0.3528 0.6557 0.6675
vn 0.3528 -0.6557 0.6675
vn 0.0000 0.6578 0.7532
vn 0.0000 -0.6578 0.7532
vn -0.3528 0.6557 0.6675
vn -0.3528 -0.6557 0.6675
vn -0.6423 0.6510 0.4045
vn -0.6423 -0.6510 0.4045
vn -0.7613 0.6484 0.0000
vn -0.7613 -0.6484 0.0000
vn -0.6423 0.6510 -0.4045
vn -0.6423 -0.6510 -0.4045
vn -0.3528 0.6557 -0.6675
vn -0.3528 -0.6557 -0.6675
usemtl None
s off
f 19/1/1 20/2/1 11/3/1 9/4/1
f 1/5/2 2/6/2 9/4/2 11/3/2
f 8/7/3 5/8/3 4/9/3
f 10/10/4 3/11/4 7/12/4
f 1/13/4 11/14/4 6/15/4
f 10/16/5 8/7/5 4/9/5 3/17/5
f 6/18/6 12/19/6 2/20/6 1/21/6
f 5/8/7 13/22/7 4/23/7
f 5/8/8 9/4/8 2/20/8
f 2/20/9 12/19/9 5/8/9
f 23/24/10 24/25/10 7/26/10 13/22/10
f 20/27/4 25/28/4 6/15/4 11/14/4
f 20/2/11 19/1/11 14/29/11 16/30/11
f 10/10/4 7/12/4 24/31/4 21/32/4
f 3/11/12 4/23/12 13/22/12 7/26/12
f 12/19/10 6/18/10 25/33/10 22/34/10
f 15/35/13 23/24/13 26/36/13
f 14/29/14 19/1/14 27/37/14
f 17/38/4 16/39/4 21/32/4 24/31/4
f 17/40/15 15/35/15 22/34/15 25/33/15
f 16/30/16 14/29/16 18/41/16 21/42/16
f 8/7/1 10/16/1 21/42/1 18/41/1
f 24/25/17 23/24/17 15/35/17 17/40/17
f 25/28/4 20/27/4 16/39/4 17/38/4
f 22/34/18 15/35/18 26/36/18
f 12/19/19 22/34/19 26/36/19 23/24/19 13/22/19 5/8/19
f 18/41/20 14/29/20 27/37/20
f 9/4/21 5/8/21 8/7/21 18/41/21 27/37/21 19/1/21
f 66/43/22 92/44/22 33/45/22
f 91/46/23 29/47/23 31/48/23 32/49/23
f 92/44/24 91/46/24 32/49/24 33/45/24
f 29/47/25 28/50/25 30/51/25 31/48/25
f 33/45/26 32/49/26 36/52/26 37/53/26
f 31/48/27 30/51/27 34/54/27 35/55/27
f 66/56/28 33/45/28 37/53/28
f 32/49/29 31/48/29 35/55/29 36/52/29
f 37/53/30 36/52/30 40/57/30 41/58/30
f 35/55/31 34/54/31 38/59/31 39/60/31
f 66/61/32 37/53/32 41/58/32
f 36/52/33 35/55/33 39/60/33 40/57/33
f 41/58/34 40/57/34 44/62/34 45/63/34
f 39/60/35 38/59/35 42/64/35 43/65/35
f 66/66/36 41/58/36 45/63/36
f 40/57/37 39/60/37 43/65/37 44/62/37
f 45/63/38 44/62/38 48/67/38 49/68/38
f 43/65/39 42/64/39 46/69/39 47/70/39
f 66/71/40 45/63/40 49/68/40
f 44/62/41 43/65/41 47/70/41 48/67/41
f 49/68/42 48/67/42 52/72/42 53/73/42
f 47/70/43 46/69/43 50/74/43 51/75/43
f 66/76/44 49/68/44 53/73/44
f 48/67/45 47/70/45 51/75/45 52/72/45
f 53/73/46 52/72/46 56/77/46 57/78/46
f 51/75/47 50/74/47 54/79/47 55/80/47
f 66/81/48 53/73/48 57/78/48
f 52/72/49 51/75/49 55/80/49 56/77/49
f 57/78/50 56/77/50 60/82/50 61/83/50
f 55/80/51 54/79/51 58/84/51 59/85/51
f 66/86/52 57/78/52 61/83/52
f 56/77/53 55/80/53 59/85/53 60/82/53
f 61/83/54 60/82/54 64/87/54 65/88/54
f 59/85/55 58/84/55 62/89/55 63/90/55
f 66/91/56 61/83/56 65/88/56
f 60/82/57 59/85/57 63/90/57 64/87/57
f 65/88/58 64/87/58 69/92/58 70/93/58
f 63/90/59 62/89/59 67/94/59 68/95/59
f 66/96/60 65/88/60 70/93/60
f 64/87/61 63/90/61 68/95/61 69/92/61
f 70/93/62 69/92/62 73/97/62 74/98/62
f 68/95/63 67/94/63 71/99/63 72/100/63
f 66/101/64 70/93/64 74/98/64
f 69/92/65 68/95/65 72/100/65 73/97/65
f 74/98/66 73/97/66 77/102/66 78/103/66
f 72/100/67 71/99/67 75/104/67 76/105/67
f 66/106/68 74/98/68 78/103/68
f 73/97/69 72/100/69 76/105/69 77/102/69
f 78/107/70 77/108/70 81/109/70 82/110/70
f 76/111/71 75/112/71 79/113/71 80/114/71
f 66/115/72 78/107/72 82/110/72
f 77/108/73 76/111/73 80/114/73 81/109/73
f 82/110/74 81/109/74 85/116/74 86/117/74
f 80/114/75 79/113/75 83/118/75 84/119/75
f 66/120/76 82/110/76 86/117/76
f 81/109/77 80/114/77 84/119/77 85/116/77
f 86/117/78 85/116/78 89/121/78 90/122/78
f 84/119/79 83/118/79 87/123/79 88/124/79
f 66/125/80 86/117/80 90/122/80
f 85/116/81 84/119/81 88/124/81 89/121/81
f 90/122/82 89/121/82 91/46/82 92/44/82
f 88/124/83 87/123/83 28/50/83 29/47/83
f 66/126/84 90/122/84 92/44/84
f 89/121/85 88/124/85 29/47/85 91/46/85
f 28/50/86 87/123/86 83/118/86 79/113/86 75/112/86 71/99/86 67/94/86 62/89/86 58/84/86 54/79/86 50/74/86 46/69/86 42/64/86 38/59/86 34/54/86 30/51/86
f 161/127/87 160/128/87 118/129/87 119/130/87
f 159/131/88 137/132/88 117/133/88
f 162/134/89 161/127/89 119/130/89 120/135/89
f 160/128/90 159/131/90 117/133/90 118/129/90
f 142/136/91 162/134/91 120/135/91
f 142/137/92 120/135/92 124/138/92
f 119/130/93 118/129/93 122/139/93 123/140/93
f 117/133/94 137/141/94 121/142/94
f 120/135/95 119/130/95 123/140/95 124/138/95
f 118/129/96 117/133/96 121/142/96 122/139/96
f 142/143/97 124/138/97 128/144/97
f 123/140/98 122/139/98 126/145/98 127/146/98
f 121/142/99 137/147/99 125/148/99
f 124/138/100 123/140/100 127/146/100 128/144/100
f 122/139/101 121/142/101 125/148/101 126/145/101
f 142/149/102 128/144/102 132/150/102
f 127/146/103 126/145/103 130/151/103 131/152/103
f 125/148/104 137/153/104 129/154/104
f 128/144/105 127/146/105 131/152/105 132/150/105
f 126/145/106 125/148/106 129/154/106 130/151/106
f 142/155/107 132/150/107 136/156/107
f 131/152/108 130/151/108 134/157/108 135/158/108
f 129/154/109 137/159/109 133/160/109
f 132/150/110 131/152/110 135/158/110 136/156/110
f 130/151/111 129/154/111 133/160/111 134/157/111
f 142/161/112 136/156/112 141/162/112
f 135/158/10 134/157/10 139/163/10 140/164/10
f 133/160/113 137/165/113 138/166/113
f 136/156/114 135/158/114 140/164/114 141/162/114
f 134/157/115 133/160/115 138/166/115 139/163/115
f 142/167/116 141/162/116 146/168/116
f 140/164/117 139/163/117 144/169/117 145/170/117
f 138/166/118 137/171/118 143/172/118
f 141/162/119 140/164/119 145/170/119 146/168/119
f 139/163/120 138/166/120 143/172/120 144/169/120
f 142/173/121 146/168/121 150/174/121
f 145/170/122 144/169/122 148/175/122 149/176/122
f 143/172/123 137/177/123 147/178/123
f 146/168/124 145/170/124 149/176/124 150/174/124
f 144/169/125 143/172/125 147/178/125 148/175/125
f 142/179/126 150/180/126 154/181/126
f 149/182/127 148/183/127 152/184/127 153/185/127
f 147/186/128 137/187/128 151/188/128
f 150/180/129 149/182/129 153/185/129 154/181/129
f 148/183/130 147/186/130 151/188/130 152/184/130
f 142/189/131 154/181/131 158/190/131
f 153/185/132 152/184/132 156/191/132 157/192/132
f 151/188/133 137/193/133 155/194/133
f 154/181/134 153/185/134 157/192/134 158/190/134
f 152/184/135 151/188/135 155/194/135 156/191/135
f 142/195/136 158/190/136 162/134/136
f 157/192/137 156/191/137 160/128/137 161/127/137
f 155/194/138 137/196/138 159/131/138
f 158/190/139 157/192/139 161/127/139 162/134/139
f 156/191/140 155/194/140 159/131/140 160/128/140
s 1
f 93/197/141 94/198/142 96/199/143 95/200/144
f 95/200/144 96/199/143 98/201/145 97/202/146
f 97/202/146 98/201/145 100/203/147 99/204/148
f 99/204/148 100/203/147 102/205/149 101/206/150
f 101/206/150 102/205/149 104/207/151 103/208/152
f 103/208/152 104/207/151 106/209/153 105/210/154
f 105/210/154 106/209/153 108/211/155 107/212/156
f 107/212/156 108/211/155 110/213/157 109/214/158
f 109/214/158 110/213/157 112/215/159 111/216/160
f 111/216/160 112/215/159 114/217/161 113/218/162
f 96/219/143 94/220/142 116/221/163 114/222/161 112/223/159 110/224/157 108/225/155 106/226/153 104/227/151 102/228/149 100/229/147 98/230/145
f 113/218/162 114/217/161 116/231/163 115/232/164
f 115/232/164 116/231/163 94/233/142 93/234/141
f 93/235/141 95/236/144 97/237/146 99/238/148 101/239/150 103/240/152 105/241/154 107/242/156 109/243/158 111/244/160 113/245/162 115/246/164
